<?xml version="1.0" encoding="utf-8"?><svg xmlns="http://www.w3.org/2000/svg" xmlns:xlink="http://www.w3.org/1999/xlink"><symbol viewBox="0 0 128 128" id="bitcoin-icon" xmlns="http://www.w3.org/2000/svg"><g filter="url(#afilter0_i)"><rect width="128" height="128" rx="24"/><rect width="128" height="128" rx="24"/></g><g filter="url(#afilter1_d)"><path d="M88.857 56.943c1.142-7.565-4.682-11.633-12.646-14.345l2.586-10.248-6.309-1.554-2.52 9.978a253.013 253.013 0 00-5.051-1.176l2.529-10.044L61.143 28l-2.579 10.243-12.722-3.116-1.678 6.663s4.68 1.061 4.581 1.127c2.555.631 3.018 2.303 2.94 3.628l-7.079 28.073c-.312.768-1.104 1.919-2.89 1.479.063.09-4.584-1.138-4.584-1.138L34 82.111l12.703 3.172-2.61 10.367 6.3 1.554 2.586-10.255c1.725.461 3.392.888 5.025 1.29l-2.576 10.207L61.736 100l2.61-10.347c10.757 2.013 18.846 1.2 22.246-8.414 2.743-7.746-.135-12.214-5.794-15.13 4.121-.943 7.225-3.623 8.053-9.162l.006-.004zM74.44 76.93c-1.954 7.746-15.137 3.56-19.415 2.508l3.464-13.732c4.275 1.055 17.985 3.145 15.954 11.223l-.003.001zm1.957-20.098c-1.779 7.05-12.756 3.468-16.318 2.59l3.136-12.46c3.564.88 15.032 2.52 13.177 9.87"/></g><defs><filter id="afilter0_i" x="0" y="0" width="128" height="128" filterUnits="userSpaceOnUse" color-interpolation-filters="sRGB"><feFlood flood-opacity="0" result="BackgroundImageFix"/><feBlend in="SourceGraphic" in2="BackgroundImageFix" result="shape"/><feColorMatrix in="SourceAlpha" values="0 0 0 0 0 0 0 0 0 0 0 0 0 0 0 0 0 0 127 0" result="hardAlpha"/><feOffset/><feGaussianBlur stdDeviation="6"/><feComposite in2="hardAlpha" operator="arithmetic" k2="-1" k3="1"/><feColorMatrix values="0 0 0 0 1 0 0 0 0 1 0 0 0 0 1 0 0 0 0.4 0"/><feBlend in2="shape" result="effect1_innerShadow"/></filter><filter id="afilter1_d" x="26" y="24" width="71" height="88" filterUnits="userSpaceOnUse" color-interpolation-filters="sRGB"><feFlood flood-opacity="0" result="BackgroundImageFix"/><feColorMatrix in="SourceAlpha" values="0 0 0 0 0 0 0 0 0 0 0 0 0 0 0 0 0 0 127 0"/><feOffset dy="4"/><feGaussianBlur stdDeviation="4"/><feColorMatrix values="0 0 0 0 1 0 0 0 0 0.41756 0 0 0 0 0.129167 0 0 0 1 0"/><feBlend in2="BackgroundImageFix" result="effect1_dropShadow"/><feBlend in="SourceGraphic" in2="effect1_dropShadow" result="shape"/></filter><linearGradient id="apaint0_linear" x1="7.655" y1="128.304" x2="121.596" y2="3.141" gradientUnits="userSpaceOnUse"><stop stop-color="#EE6429"/><stop offset="1" stop-color="#F3A173"/></linearGradient></defs></symbol><symbol viewBox="0 0 97 23" id="calypso-logo" xmlns="http://www.w3.org/2000/svg"><path d="M9.032 18.24c-1.696 0-3.232-.368-4.608-1.104a8.424 8.424 0 01-3.216-3.096C.44 12.728.056 11.248.056 9.6c0-1.648.392-3.128 1.176-4.44a8.249 8.249 0 013.216-3.072C5.824 1.336 7.36.96 9.056.96c1.376 0 2.632.24 3.768.72a7.685 7.685 0 012.88 2.088l-2.016 1.896C12.472 4.352 10.976 3.696 9.2 3.696c-1.152 0-2.184.256-3.096.768a5.364 5.364 0 00-2.136 2.088C3.456 7.448 3.2 8.464 3.2 9.6c0 1.136.256 2.152.768 3.048a5.53 5.53 0 002.136 2.112c.912.496 1.944.744 3.096.744 1.776 0 3.272-.664 4.488-1.992l2.016 1.92A7.645 7.645 0 0112.8 17.52c-1.136.48-2.392.72-3.768.72zm14.392-13.2c1.888 0 3.328.456 4.32 1.368 1.008.896 1.512 2.256 1.512 4.08V18h-2.832v-1.56c-.368.56-.896.992-1.584 1.296-.672.288-1.488.432-2.448.432s-1.8-.16-2.52-.48c-.72-.336-1.28-.792-1.68-1.368a3.582 3.582 0 01-.576-1.992c0-1.152.424-2.072 1.272-2.76.864-.704 2.216-1.056 4.056-1.056h3.312v-.192c0-.896-.272-1.584-.816-2.064-.528-.48-1.32-.72-2.376-.72-.72 0-1.432.112-2.136.336-.688.224-1.272.536-1.752.936L18 6.624c.672-.512 1.48-.904 2.424-1.176a10.785 10.785 0 013-.408zm-.408 10.944c.752 0 1.416-.168 1.992-.504a2.85 2.85 0 001.248-1.488v-1.488H23.16c-1.728 0-2.592.568-2.592 1.704 0 .544.216.976.648 1.296.432.32 1.032.48 1.8.48zM33.346.192h3V18h-3V.192zm19.178 4.992l-6 13.848c-.56 1.392-1.24 2.368-2.04 2.928-.8.576-1.768.864-2.904.864a5.96 5.96 0 01-1.896-.312c-.624-.208-1.136-.496-1.536-.864l1.2-2.208c.288.272.624.488 1.008.648.4.16.8.24 1.2.24.528 0 .96-.136 1.296-.408.352-.272.672-.728.96-1.368l.216-.504-5.592-12.864h3.12l4.032 9.48 4.056-9.48h2.88zm9.219-.144c1.248 0 2.36.272 3.336.816a5.863 5.863 0 012.328 2.304c.56.992.84 2.136.84 3.432 0 1.296-.28 2.448-.84 3.456a5.863 5.863 0 01-2.328 2.304c-.976.544-2.088.816-3.336.816-1.728 0-3.096-.576-4.104-1.728v6.216h-3V5.184h2.856v1.68a4.66 4.66 0 011.824-1.368c.736-.304 1.544-.456 2.424-.456zm-.336 10.56c1.104 0 2.008-.368 2.712-1.104.72-.736 1.08-1.704 1.08-2.904s-.36-2.168-1.08-2.904c-.704-.736-1.608-1.104-2.712-1.104-.72 0-1.368.168-1.944.504a3.473 3.473 0 00-1.368 1.392c-.336.608-.504 1.312-.504 2.112s.168 1.504.504 2.112a3.64 3.64 0 001.368 1.416c.576.32 1.224.48 1.944.48zm13.885 2.568c-1.04 0-2.056-.136-3.048-.408-.992-.272-1.784-.616-2.376-1.032l1.152-2.28c.576.384 1.264.696 2.064.936a9.042 9.042 0 002.4.336c1.792 0 2.688-.472 2.688-1.416 0-.448-.232-.76-.696-.936-.448-.176-1.176-.344-2.184-.504-1.056-.16-1.92-.344-2.592-.552a4.104 4.104 0 01-1.728-1.08c-.48-.528-.72-1.256-.72-2.184 0-1.216.504-2.184 1.512-2.904 1.024-.736 2.4-1.104 4.128-1.104.88 0 1.76.104 2.64.312.88.192 1.6.456 2.16.792l-1.152 2.28c-1.088-.64-2.312-.96-3.672-.96-.88 0-1.552.136-2.016.408-.448.256-.672.6-.672 1.032 0 .48.24.824.72 1.032.496.192 1.256.376 2.28.552 1.024.16 1.864.344 2.52.552.656.208 1.216.56 1.68 1.056.48.496.72 1.2.72 2.112 0 1.2-.52 2.16-1.56 2.88-1.04.72-2.456 1.08-4.248 1.08zm14.392 0c-1.296 0-2.464-.28-3.504-.84A6.235 6.235 0 0183.732 15c-.576-1.008-.864-2.144-.864-3.408 0-1.264.288-2.392.864-3.384A6.235 6.235 0 0186.18 5.88c1.04-.56 2.208-.84 3.504-.84 1.312 0 2.488.28 3.528.84a6.067 6.067 0 012.424 2.328c.592.992.888 2.12.888 3.384 0 1.264-.296 2.4-.888 3.408a6.067 6.067 0 01-2.424 2.328c-1.04.56-2.216.84-3.528.84zm0-2.568c1.104 0 2.016-.368 2.736-1.104.72-.736 1.08-1.704 1.08-2.904s-.36-2.168-1.08-2.904c-.72-.736-1.632-1.104-2.736-1.104-1.104 0-2.016.368-2.736 1.104-.704.736-1.056 1.704-1.056 2.904s.352 2.168 1.056 2.904c.72.736 1.632 1.104 2.736 1.104z"/></symbol><symbol viewBox="0 0 128 128" id="ethereum-icon" xmlns="http://www.w3.org/2000/svg"><g filter="url(#cfilter0_i)"><rect width="128" height="128" rx="20"/><rect width="128" height="128" rx="20"/></g><g filter="url(#cfilter1_d)"><path fill-rule="evenodd" clip-rule="evenodd" d="M45 63l19-36 19 36-19 12-19-12zm38 6L64 81 45 69l19 30 19-30z"/></g><defs><filter id="cfilter0_i" x="0" y="0" width="128" height="128" filterUnits="userSpaceOnUse" color-interpolation-filters="sRGB"><feFlood flood-opacity="0" result="BackgroundImageFix"/><feBlend in="SourceGraphic" in2="BackgroundImageFix" result="shape"/><feColorMatrix in="SourceAlpha" values="0 0 0 0 0 0 0 0 0 0 0 0 0 0 0 0 0 0 127 0" result="hardAlpha"/><feOffset/><feGaussianBlur stdDeviation="6"/><feComposite in2="hardAlpha" operator="arithmetic" k2="-1" k3="1"/><feColorMatrix values="0 0 0 0 1 0 0 0 0 1 0 0 0 0 1 0 0 0 0.4 0"/><feBlend in2="shape" result="effect1_innerShadow"/></filter><filter id="cfilter1_d" x="37" y="23" width="54" height="88" filterUnits="userSpaceOnUse" color-interpolation-filters="sRGB"><feFlood flood-opacity="0" result="BackgroundImageFix"/><feColorMatrix in="SourceAlpha" values="0 0 0 0 0 0 0 0 0 0 0 0 0 0 0 0 0 0 127 0"/><feOffset dy="4"/><feGaussianBlur stdDeviation="4"/><feColorMatrix values="0 0 0 0 0.447656 0 0 0 0 0.21816 0 0 0 0 0.858333 0 0 0 1 0"/><feBlend in2="BackgroundImageFix" result="effect1_dropShadow"/><feBlend in="SourceGraphic" in2="effect1_dropShadow" result="shape"/></filter><linearGradient id="cpaint0_linear" x1="20.183" y1="115.41" x2="109.732" y2="-.025" gradientUnits="userSpaceOnUse"><stop stop-color="#8866D2"/><stop offset="1" stop-color="#C594F5"/></linearGradient></defs></symbol><symbol viewBox="0 0 128 128" id="tether-icon" xmlns="http://www.w3.org/2000/svg"><g filter="url(#dfilter0_i)"><rect width="128" height="128" rx="20"/><rect width="128" height="128" rx="20"/></g><g filter="url(#dfilter1_d)"><path d="M70.507 65.717v-.007c-.364.027-2.243.14-6.434.14-3.347 0-5.702-.1-6.53-.14v.01c-12.883-.567-22.498-2.812-22.498-5.498 0-2.683 9.615-4.928 22.497-5.505v8.768c.842.06 3.254.202 6.587.202 4 0 6.004-.165 6.378-.199v-8.764c12.856.573 22.448 2.818 22.448 5.498 0 2.686-9.592 4.925-22.448 5.495zm0-11.905v-7.847h17.939V34H39.604v11.965h17.938v7.843C42.964 54.478 32 57.37 32 60.832s10.964 6.35 25.542 7.024V93h12.965V67.85C85.063 67.18 96 64.29 96 60.831s-10.937-6.347-25.493-7.02z"/></g><defs><filter id="dfilter0_i" x="0" y="0" width="128" height="128" filterUnits="userSpaceOnUse" color-interpolation-filters="sRGB"><feFlood flood-opacity="0" result="BackgroundImageFix"/><feBlend in="SourceGraphic" in2="BackgroundImageFix" result="shape"/><feColorMatrix in="SourceAlpha" values="0 0 0 0 0 0 0 0 0 0 0 0 0 0 0 0 0 0 127 0" result="hardAlpha"/><feOffset/><feGaussianBlur stdDeviation="6"/><feComposite in2="hardAlpha" operator="arithmetic" k2="-1" k3="1"/><feColorMatrix values="0 0 0 0 1 0 0 0 0 1 0 0 0 0 1 0 0 0 0.4 0"/><feBlend in2="shape" result="effect1_innerShadow"/></filter><filter id="dfilter1_d" x="24" y="30" width="80" height="75" filterUnits="userSpaceOnUse" color-interpolation-filters="sRGB"><feFlood flood-opacity="0" result="BackgroundImageFix"/><feColorMatrix in="SourceAlpha" values="0 0 0 0 0 0 0 0 0 0 0 0 0 0 0 0 0 0 127 0"/><feOffset dy="4"/><feGaussianBlur stdDeviation="4"/><feColorMatrix values="0 0 0 0 0.00597221 0 0 0 0 0.716667 0 0 0 0 0.440966 0 0 0 1 0"/><feBlend in2="BackgroundImageFix" result="effect1_dropShadow"/><feBlend in="SourceGraphic" in2="effect1_dropShadow" result="shape"/></filter><linearGradient id="dpaint0_linear" x1="123.769" y1="8.125" x2="17.022" y2="131.281" gradientUnits="userSpaceOnUse"><stop stop-color="#42ECAF"/><stop offset="1" stop-color="#2AC584"/></linearGradient></defs></symbol></svg>