<?xml version="1.0" encoding="utf-8"?><svg xmlns="http://www.w3.org/2000/svg" xmlns:xlink="http://www.w3.org/1999/xlink"><symbol viewBox="0 0 128 128" id="bitcoin" xmlns="http://www.w3.org/2000/svg"><g filter="url(#afilter0_d)"><path d="M88.857 56.943c1.142-7.565-4.682-11.633-12.646-14.345l2.586-10.248-6.309-1.554-2.52 9.978a253.013 253.013 0 00-5.051-1.176l2.529-10.044L61.143 28l-2.579 10.243-12.722-3.116-1.678 6.663s4.68 1.061 4.581 1.127c2.555.631 3.018 2.303 2.94 3.628l-7.079 28.073c-.312.768-1.104 1.919-2.89 1.479.063.09-4.584-1.138-4.584-1.138L34 82.111l12.703 3.172-2.61 10.367 6.3 1.554 2.586-10.255c1.725.461 3.392.888 5.025 1.29l-2.576 10.207L61.736 100l2.61-10.347c10.757 2.013 18.846 1.2 22.246-8.414 2.743-7.746-.135-12.214-5.794-15.13 4.121-.943 7.225-3.623 8.053-9.162l.006-.004zM74.44 76.93c-1.954 7.746-15.137 3.56-19.415 2.508l3.464-13.732c4.275 1.055 17.985 3.145 15.954 11.223l-.003.001zm1.957-20.098c-1.779 7.05-12.756 3.468-16.318 2.59l3.136-12.46c3.564.88 15.032 2.52 13.177 9.87"/></g><defs><filter id="afilter0_d" x="26" y="24" width="71" height="88" filterUnits="userSpaceOnUse" color-interpolation-filters="sRGB"><feFlood flood-opacity="0" result="BackgroundImageFix"/><feColorMatrix in="SourceAlpha" values="0 0 0 0 0 0 0 0 0 0 0 0 0 0 0 0 0 0 127 0"/><feOffset dy="4"/><feGaussianBlur stdDeviation="4"/><feColorMatrix values="0 0 0 0 1 0 0 0 0 0.41756 0 0 0 0 0.129167 0 0 0 1 0"/><feBlend in2="BackgroundImageFix" result="effect1_dropShadow"/><feBlend in="SourceGraphic" in2="effect1_dropShadow" result="shape"/></filter></defs></symbol><symbol viewBox="0 0 97 23" id="calypso-logo" xmlns="http://www.w3.org/2000/svg"><path d="M9.032 18.24c-1.696 0-3.232-.368-4.608-1.104a8.424 8.424 0 01-3.216-3.096C.44 12.728.056 11.248.056 9.6c0-1.648.392-3.128 1.176-4.44a8.249 8.249 0 013.216-3.072C5.824 1.336 7.36.96 9.056.96c1.376 0 2.632.24 3.768.72a7.685 7.685 0 012.88 2.088l-2.016 1.896C12.472 4.352 10.976 3.696 9.2 3.696c-1.152 0-2.184.256-3.096.768a5.364 5.364 0 00-2.136 2.088C3.456 7.448 3.2 8.464 3.2 9.6c0 1.136.256 2.152.768 3.048a5.53 5.53 0 002.136 2.112c.912.496 1.944.744 3.096.744 1.776 0 3.272-.664 4.488-1.992l2.016 1.92A7.645 7.645 0 0112.8 17.52c-1.136.48-2.392.72-3.768.72zm14.392-13.2c1.888 0 3.328.456 4.32 1.368 1.008.896 1.512 2.256 1.512 4.08V18h-2.832v-1.56c-.368.56-.896.992-1.584 1.296-.672.288-1.488.432-2.448.432s-1.8-.16-2.52-.48c-.72-.336-1.28-.792-1.68-1.368a3.582 3.582 0 01-.576-1.992c0-1.152.424-2.072 1.272-2.76.864-.704 2.216-1.056 4.056-1.056h3.312v-.192c0-.896-.272-1.584-.816-2.064-.528-.48-1.32-.72-2.376-.72-.72 0-1.432.112-2.136.336-.688.224-1.272.536-1.752.936L18 6.624c.672-.512 1.48-.904 2.424-1.176a10.785 10.785 0 013-.408zm-.408 10.944c.752 0 1.416-.168 1.992-.504a2.85 2.85 0 001.248-1.488v-1.488H23.16c-1.728 0-2.592.568-2.592 1.704 0 .544.216.976.648 1.296.432.32 1.032.48 1.8.48zM33.346.192h3V18h-3V.192zm19.178 4.992l-6 13.848c-.56 1.392-1.24 2.368-2.04 2.928-.8.576-1.768.864-2.904.864a5.96 5.96 0 01-1.896-.312c-.624-.208-1.136-.496-1.536-.864l1.2-2.208c.288.272.624.488 1.008.648.4.16.8.24 1.2.24.528 0 .96-.136 1.296-.408.352-.272.672-.728.96-1.368l.216-.504-5.592-12.864h3.12l4.032 9.48 4.056-9.48h2.88zm9.219-.144c1.248 0 2.36.272 3.336.816a5.863 5.863 0 012.328 2.304c.56.992.84 2.136.84 3.432 0 1.296-.28 2.448-.84 3.456a5.863 5.863 0 01-2.328 2.304c-.976.544-2.088.816-3.336.816-1.728 0-3.096-.576-4.104-1.728v6.216h-3V5.184h2.856v1.68a4.66 4.66 0 011.824-1.368c.736-.304 1.544-.456 2.424-.456zm-.336 10.56c1.104 0 2.008-.368 2.712-1.104.72-.736 1.08-1.704 1.08-2.904s-.36-2.168-1.08-2.904c-.704-.736-1.608-1.104-2.712-1.104-.72 0-1.368.168-1.944.504a3.473 3.473 0 00-1.368 1.392c-.336.608-.504 1.312-.504 2.112s.168 1.504.504 2.112a3.64 3.64 0 001.368 1.416c.576.32 1.224.48 1.944.48zm13.885 2.568c-1.04 0-2.056-.136-3.048-.408-.992-.272-1.784-.616-2.376-1.032l1.152-2.28c.576.384 1.264.696 2.064.936a9.042 9.042 0 002.4.336c1.792 0 2.688-.472 2.688-1.416 0-.448-.232-.76-.696-.936-.448-.176-1.176-.344-2.184-.504-1.056-.16-1.92-.344-2.592-.552a4.104 4.104 0 01-1.728-1.08c-.48-.528-.72-1.256-.72-2.184 0-1.216.504-2.184 1.512-2.904 1.024-.736 2.4-1.104 4.128-1.104.88 0 1.76.104 2.64.312.88.192 1.6.456 2.16.792l-1.152 2.28c-1.088-.64-2.312-.96-3.672-.96-.88 0-1.552.136-2.016.408-.448.256-.672.6-.672 1.032 0 .48.24.824.72 1.032.496.192 1.256.376 2.28.552 1.024.16 1.864.344 2.52.552.656.208 1.216.56 1.68 1.056.48.496.72 1.2.72 2.112 0 1.2-.52 2.16-1.56 2.88-1.04.72-2.456 1.08-4.248 1.08zm14.392 0c-1.296 0-2.464-.28-3.504-.84A6.235 6.235 0 0183.732 15c-.576-1.008-.864-2.144-.864-3.408 0-1.264.288-2.392.864-3.384A6.235 6.235 0 0186.18 5.88c1.04-.56 2.208-.84 3.504-.84 1.312 0 2.488.28 3.528.84a6.067 6.067 0 012.424 2.328c.592.992.888 2.12.888 3.384 0 1.264-.296 2.4-.888 3.408a6.067 6.067 0 01-2.424 2.328c-1.04.56-2.216.84-3.528.84zm0-2.568c1.104 0 2.016-.368 2.736-1.104.72-.736 1.08-1.704 1.08-2.904s-.36-2.168-1.08-2.904c-.72-.736-1.632-1.104-2.736-1.104-1.104 0-2.016.368-2.736 1.104-.704.736-1.056 1.704-1.056 2.904s.352 2.168 1.056 2.904c.72.736 1.632 1.104 2.736 1.104z"/></symbol><symbol viewBox="0 0 113 27" id="crystal" xmlns="http://www.w3.org/2000/svg"><path fill-rule="evenodd" clip-rule="evenodd" d="M20.724 1.79H4.833L.088 8.298l12.69 13.093 12.69-13.093-4.744-6.508zM32.426 13.52V8.947c0-5.346 2.373-7.864 7.268-7.864 4.707 0 7.004 2.325 7.155 7.128h-3.314c-.113-2.789-1.243-4.028-3.803-4.028-2.75 0-3.879 1.433-3.879 4.842v4.455c0 3.409 1.13 4.842 3.879 4.842 2.56 0 3.69-1.24 3.803-3.99h3.314c-.151 4.803-2.448 7.089-7.155 7.089-4.895-.039-7.268-2.596-7.268-7.903zm17.021-7.438h2.862l.15 2.75c.64-2.092 1.883-3.022 3.916-3.022h1.055v3.293h-.753c-2.26 0-3.39.969-3.841 3.37v8.6h-3.352V6.082h-.037zm9.754 17.393h1.431c.941 0 1.356-.27 1.694-1.317l.49-1.51-5.084-14.566h3.578l3.238 10.188 3.013-10.188h3.389l-5.423 16.502c-.941 2.867-1.92 3.72-4.519 3.72h-1.807v-2.829zM71.4 16.541h3.201c0 1.472.942 2.208 2.9 2.208 1.807 0 2.673-.62 2.673-1.743 0-1.24-.866-1.743-3.351-2.092-3.69-.465-5.121-1.665-5.121-4.455 0-3.099 2.07-4.726 5.799-4.726 3.728 0 5.648 1.627 5.648 4.688h-3.238c0-1.395-.791-2.054-2.448-2.054-1.581 0-2.448.62-2.448 1.705 0 1.2.867 1.666 3.239 1.937 3.765.426 5.196 1.782 5.196 4.648 0 3.138-1.995 4.726-5.987 4.726-4.104 0-6.063-1.627-6.063-4.842zm14.988-.31V8.755H84.09V6.082h2.372l.226-3.835h3.088v3.835h3.276v2.673h-3.276v7.399c0 1.627.377 2.092 1.808 2.092h1.618v2.789H90.53c-2.9 0-4.142-1.395-4.142-4.804zm13.554-4.261c-3.953 0-5.874 1.705-5.874 4.804 0 2.944 1.808 4.61 4.67 4.61 2.071 0 3.577-.814 4.669-2.325l.113 1.976h2.862V11.35c0-3.835-1.882-5.617-5.874-5.617-3.841 0-5.8 1.666-6.025 4.959h3.238c.113-1.433.98-2.17 2.673-2.17 1.808 0 2.636.892 2.636 2.79v.658h-3.088zm3.088 2.48v1.859c-.715 1.51-1.882 2.285-3.426 2.247-1.469 0-2.222-.736-2.222-2.015 0-1.356.829-2.092 3.012-2.092h2.636zM109.584 0h3.351v21.035h-3.351V0z"/></symbol><symbol viewBox="0 0 128 128" id="ethereum" xmlns="http://www.w3.org/2000/svg"><g filter="url(#dfilter0_d)"><path fill-rule="evenodd" clip-rule="evenodd" d="M45 63l19-36 19 36-19 12-19-12zm38 6L64 81 45 69l19 30 19-30z"/></g><defs><filter id="dfilter0_d" x="37" y="23" width="54" height="88" filterUnits="userSpaceOnUse" color-interpolation-filters="sRGB"><feFlood flood-opacity="0" result="BackgroundImageFix"/><feColorMatrix in="SourceAlpha" values="0 0 0 0 0 0 0 0 0 0 0 0 0 0 0 0 0 0 127 0"/><feOffset dy="4"/><feGaussianBlur stdDeviation="4"/><feColorMatrix values="0 0 0 0 0.447656 0 0 0 0 0.21816 0 0 0 0 0.858333 0 0 0 1 0"/><feBlend in2="BackgroundImageFix" result="effect1_dropShadow"/><feBlend in="SourceGraphic" in2="effect1_dropShadow" result="shape"/></filter></defs></symbol><symbol viewBox="0 0 128 128" id="tether" xmlns="http://www.w3.org/2000/svg"><g filter="url(#efilter0_d)"><path d="M70.507 65.717v-.007c-.364.027-2.243.14-6.434.14-3.347 0-5.702-.1-6.53-.14v.01c-12.883-.567-22.498-2.812-22.498-5.498 0-2.683 9.615-4.928 22.497-5.505v8.768c.842.06 3.254.202 6.587.202 4 0 6.004-.165 6.378-.199v-8.764c12.856.573 22.448 2.818 22.448 5.498 0 2.686-9.592 4.925-22.448 5.495zm0-11.905v-7.847h17.939V34H39.604v11.965h17.938v7.843C42.964 54.478 32 57.37 32 60.832s10.964 6.35 25.542 7.024V93h12.965V67.85C85.063 67.18 96 64.29 96 60.831s-10.937-6.347-25.493-7.02z"/></g><defs><filter id="efilter0_d" x="24" y="30" width="80" height="75" filterUnits="userSpaceOnUse" color-interpolation-filters="sRGB"><feFlood flood-opacity="0" result="BackgroundImageFix"/><feColorMatrix in="SourceAlpha" values="0 0 0 0 0 0 0 0 0 0 0 0 0 0 0 0 0 0 127 0"/><feOffset dy="4"/><feGaussianBlur stdDeviation="4"/><feColorMatrix values="0 0 0 0 0.00597221 0 0 0 0 0.716667 0 0 0 0 0.440966 0 0 0 1 0"/><feBlend in2="BackgroundImageFix" result="effect1_dropShadow"/><feBlend in="SourceGraphic" in2="effect1_dropShadow" result="shape"/></filter></defs></symbol><symbol viewBox="0 0 166 36" id="watchblock-logo" xmlns="http://www.w3.org/2000/svg"><path d="M5.824 27.36h3.151l3.893-13.312L16.76 27.36h3.151l5.561-18.72h-3.35l-3.786 13.52-3.8-13.52-3.35.026L7.4 22.16 3.6 8.64H.25l5.574 18.72zm24.618.39c1.138 0 2.105-.182 2.9-.546.802-.373 1.508-.949 2.117-1.729v1.885h2.794v-8.619c0-.607-.026-1.166-.08-1.677a4.214 4.214 0 00-.463-1.521 4.129 4.129 0 00-2.158-2.002c-.962-.407-2.078-.611-3.35-.611-1.677 0-3.014.36-4.011 1.079a5.291 5.291 0 00-2.026 2.86l2.913.897c.238-.72.657-1.226 1.258-1.521a4.187 4.187 0 011.867-.442c.97 0 1.685.195 2.144.585.46.381.72.975.782 1.781-1.254.182-2.419.36-3.496.533-1.068.165-1.977.368-2.727.611-1.13.381-1.955.923-2.476 1.625-.521.693-.781 1.551-.781 2.574 0 .771.18 1.478.543 2.119.37.641.913 1.157 1.628 1.547.715.381 1.589.572 2.622.572zm.635-2.496c-.75 0-1.324-.169-1.721-.507a1.618 1.618 0 01-.583-1.274c0-.46.15-.832.45-1.118.31-.286.738-.529 1.285-.728a12.965 12.965 0 011.814-.429c.706-.13 1.628-.282 2.767-.455-.01.33-.031.698-.066 1.105a3.66 3.66 0 01-.252 1.079c-.106.32-.313.663-.622 1.027-.3.364-.706.672-1.218.923s-1.13.377-1.854.377zm19.004 2.106v-2.626c-.892.13-1.686.165-2.383.104-.697-.06-1.205-.351-1.523-.871-.167-.269-.26-.615-.278-1.04a73.022 73.022 0 01-.013-1.482v-5.668h4.197V13.32h-4.197v-3.9h-3.178v3.9h-2.595v2.457h2.595v5.85c0 .806.01 1.525.027 2.158.018.624.19 1.24.516 1.846.37.667.914 1.157 1.629 1.469.715.303 1.522.464 2.423.481.909.026 1.835-.048 2.78-.221zm8.56.39c1.598 0 2.948-.381 4.052-1.144 1.103-.771 1.875-1.872 2.317-3.302l-3.257-.715c-.248.72-.618 1.27-1.112 1.651-.486.381-1.152.572-2 .572-1.2 0-2.105-.412-2.714-1.235-.6-.823-.905-1.902-.913-3.237.008-1.291.3-2.357.873-3.198.583-.85 1.5-1.274 2.754-1.274.733 0 1.386.212 1.96.637.574.416.984 1.001 1.231 1.755l3.178-.845c-.336-1.387-1.068-2.479-2.198-3.276-1.13-.806-2.507-1.209-4.131-1.209-1.448 0-2.697.32-3.747.962a6.421 6.421 0 00-2.436 2.626c-.565 1.11-.852 2.383-.86 3.822.008 1.413.286 2.678.833 3.796a6.445 6.445 0 002.397 2.652c1.041.641 2.3.962 3.773.962zm8.995-.39h3.231v-7.215c0-1.135.163-2.01.49-2.626.335-.624.759-1.053 1.27-1.287a3.726 3.726 0 011.59-.364c.759 0 1.363.165 1.814.494.45.32.78.732.993 1.235.22.494.361 1.01.423 1.547.07.537.106 1.023.106 1.456v6.76h3.23v-7.839c0-.33-.03-.767-.092-1.313a8.321 8.321 0 00-.37-1.729 5.735 5.735 0 00-.901-1.716c-.406-.546-.958-.988-1.655-1.326-.689-.347-1.558-.52-2.608-.52-1.033 0-1.942.178-2.728.533a5.45 5.45 0 00-1.946 1.43V8.64h-2.847v18.72zm16.576 0h2.82v-1.04a5.63 5.63 0 001.788 1.053c.68.251 1.443.377 2.29.377 1.324 0 2.472-.325 3.443-.975.98-.65 1.739-1.534 2.277-2.652s.808-2.379.808-3.783c0-1.421-.274-2.691-.821-3.809-.539-1.118-1.307-1.998-2.304-2.639-.998-.641-2.171-.962-3.522-.962a6.36 6.36 0 00-1.96.286 5.401 5.401 0 00-1.601.793V8.64h-3.218v18.72zm6.408-2.418c-1.28 0-2.197-.425-2.754-1.274-.556-.858-.834-1.967-.834-3.328 0-1.37.274-2.479.821-3.328.556-.85 1.443-1.274 2.662-1.274.856 0 1.557.208 2.105.624.556.407.966.962 1.231 1.664.274.693.41 1.465.41 2.314 0 .858-.132 1.634-.397 2.327-.256.693-.653 1.248-1.191 1.664-.539.407-1.223.611-2.053.611zm10.201 2.418h3.191V8.25h-3.191v19.11zm13.472.39c1.43 0 2.679-.312 3.747-.936a6.566 6.566 0 002.489-2.613c.6-1.118.9-2.405.9-3.861 0-1.447-.295-2.726-.887-3.835a6.544 6.544 0 00-2.489-2.626c-1.068-.633-2.321-.949-3.76-.949-1.403 0-2.639.312-3.707.936a6.568 6.568 0 00-2.502 2.6c-.601 1.11-.901 2.4-.901 3.874 0 1.447.292 2.73.874 3.848a6.566 6.566 0 002.489 2.613c1.068.633 2.317.949 3.747.949zm0-2.938c-1.227 0-2.158-.403-2.794-1.209-.626-.815-.94-1.902-.94-3.263 0-1.326.301-2.4.901-3.224.609-.832 1.553-1.248 2.833-1.248 1.253 0 2.194.407 2.82 1.222.627.806.94 1.89.94 3.25 0 1.317-.313 2.392-.94 3.224-.618.832-1.558 1.248-2.82 1.248zm16.263 2.938c1.598 0 2.948-.381 4.052-1.144 1.103-.771 1.875-1.872 2.317-3.302l-3.257-.715c-.248.72-.618 1.27-1.113 1.651-.485.381-1.151.572-1.999.572-1.2 0-2.105-.412-2.714-1.235-.6-.823-.905-1.902-.914-3.237.009-1.291.301-2.357.874-3.198.583-.85 1.501-1.274 2.754-1.274a3.21 3.21 0 011.96.637c.573.416.984 1.001 1.231 1.755l3.178-.845c-.336-1.387-1.068-2.479-2.198-3.276-1.13-.806-2.507-1.209-4.131-1.209-1.448 0-2.697.32-3.747.962a6.425 6.425 0 00-2.436 2.626c-.565 1.11-.852 2.383-.861 3.822.009 1.413.287 2.678.834 3.796a6.443 6.443 0 002.397 2.652c1.041.641 2.299.962 3.773.962zm8.995-.39h3.257V20.6l5.468 6.76h4.224l-6.024-7.02 5.547-7.02h-3.985l-5.23 6.76V8.64h-3.23l-.027 18.72z"/></symbol></svg>